<svg width="540" height="967" viewBox="0 0 540 967" fill="none" xmlns="http://www.w3.org/2000/svg">
<path d="M20.2513 2.99615L20.2621 2.99713L20.2719 2.99908L52.7719 8.49908L52.7914 8.50201L52.8099 8.5069L64.8099 11.5069L64.8226 11.5098L64.8344 11.5137L76.3344 15.0137L76.3549 15.0206L91.3744 21.0284L91.3812 21.0303L91.3881 21.0333L102.886 26.0323L113.386 30.5323L113.412 30.544L113.437 30.5577L130.937 40.5577L130.949 40.5645L130.96 40.5723L146.46 50.5723H146.459L158.453 58.0684L158.47 58.0782L158.485 58.0899L175.485 70.5899L175.5 70.6006L175.515 70.6133L190.015 83.1133L190.026 83.1221L190.036 83.1319L203.036 95.6319L203.047 95.6436L220.047 113.144L220.055 113.151L236.063 131.16L236.074 131.172L236.083 131.185L255.579 156.18L267.579 171.18L267.589 171.192L267.599 171.206L282.599 192.706L282.615 192.73L299.615 220.23H299.614L312.11 239.723L312.122 239.742L312.133 239.763L320.127 255.252L334.127 280.752L334.135 280.767L334.143 280.782L352.141 319.778L365.141 347.278L365.149 347.296L365.156 347.315L385.156 399.815L385.16 399.824L406.16 458.824L406.163 458.836L419.163 498.336L419.166 498.344L419.168 498.352L439.168 566.352L439.17 566.358L444.17 584.358L444.173 584.366L444.175 584.375L457.673 640.367L466.173 673.367L466.181 673.402L471.181 700.902L483.171 757.86L490.658 782.315L498.644 799.784H498.643L507.133 818.262L516.613 834.228L529.113 854.228L529.13 854.256L529.145 854.286L536.145 869.786L536.168 869.84L536.18 869.898L538.68 882.898L538.692 882.962L538.688 883.026L537.688 897.526L537.686 897.551L535.682 909.574L535.673 909.628L535.653 909.678L531.653 919.678L531.64 919.71L531.623 919.74L525.623 930.24L525.603 930.275L525.578 930.307L517.078 940.807L517.052 940.839L517.021 940.866L508.021 948.866L507.995 948.889L495.922 956.938L495.872 956.957L479.372 963.457L479.369 963.459L472.869 965.959L472.782 965.992H450.621L439.557 962.975L439.526 962.965L426.526 958.465L426.452 958.44L426.389 958.393C424.057 956.643 420.533 954.019 417.543 951.833C416.048 950.74 414.689 949.758 413.68 949.05C413.175 948.695 412.761 948.412 412.463 948.219C412.314 948.122 412.199 948.052 412.12 948.007C412.095 947.993 412.076 947.983 412.064 947.977C412.015 947.966 411.977 947.953 411.954 947.944C411.905 947.925 411.859 947.901 411.82 947.879C411.74 947.834 411.651 947.776 411.558 947.71C411.371 947.578 411.133 947.391 410.861 947.169C410.313 946.723 409.601 946.108 408.832 945.43C407.295 944.072 405.517 942.443 404.349 941.358L404.322 941.333L404.298 941.305L398.298 933.805L398.277 933.777L398.259 933.747L390.259 920.247L390.226 920.191L385.208 902.63L385.189 902.563V883.965L385.192 883.937L386.692 870.437L386.698 870.382L386.716 870.329L391.216 857.329L391.222 857.314L400.2 833.87L405.193 794.929L408.186 767.982L404.193 719.052L400.196 685.574L391.197 631.581L383.197 587.082L374.197 538.082V538.081L366.204 501.618L352.709 449.636L341.209 411.136L341.208 411.13L333.215 383.152L321.72 349.167L310.727 319.685L298.227 289.685V289.684L281.74 253.712L268.24 226.213V226.212L251.259 196.247L238.769 175.264L223.277 151.275L209.3 132.308L195.318 116.827L195.313 116.822L195.308 116.816L175.328 93.3399L149.869 70.377L131.398 55.8995L118.415 47.4112L118.414 47.4102L102.442 36.9278L85.9711 28.9424L69.4867 20.9493C69.4821 20.9474 69.4757 20.9456 69.4681 20.9424C69.4487 20.9344 69.4194 20.9221 69.3812 20.9063C69.3048 20.8747 69.1917 20.8278 69.0453 20.7676C68.7522 20.6472 68.3252 20.4726 67.7924 20.2559C66.7266 19.8226 65.2351 19.2211 63.5336 18.5499C60.1281 17.2065 55.8885 15.5861 52.5306 14.4669C49.1726 13.3475 44.8082 12.1005 41.2777 11.1319C39.5138 10.648 37.9605 10.2333 36.848 9.94049C36.2918 9.79409 35.8452 9.6782 35.5385 9.59869C35.3854 9.55902 35.267 9.5285 35.1869 9.50787C35.1471 9.49762 35.1165 9.48968 35.0961 9.48444C35.0859 9.48183 35.0778 9.47989 35.0726 9.47858C35.0701 9.47794 35.068 9.47793 35.0668 9.4776L13.0814 3.98053L0.0941162 1.48346L0.251343 0.496155L20.2513 2.99615Z" fill="black" stroke="black"/>
</svg>
