<svg xmlns="http://www.w3.org/2000/svg" width="1424" height="96" viewBox="0 0 1424 96" fill="none">
<mask id="path-1-inside-1_590_1274" fill="white">
<path d="M0 0.427734L94.8857 0.427734L94.8857 95.3134L0 95.3134L0 0.427734Z"/>
</mask>
<path d="M94.8857 0.427734L95.5834 0.427734V-0.269955L94.8857 -0.269955V0.427734ZM94.8857 95.3134V96.0111H95.5834V95.3134H94.8857ZM0 1.12542L94.8857 1.12542V-0.269955L0 -0.269955L0 1.12542ZM94.188 0.427734L94.188 95.3134H95.5834L95.5834 0.427734L94.188 0.427734ZM94.8857 94.6158L0 94.6158L0 96.0111L94.8857 96.0111V94.6158Z" fill="url(#paint0_linear_590_1274)" mask="url(#path-1-inside-1_590_1274)"/>
<mask id="path-3-inside-2_590_1274" fill="white">
<path d="M94.8857 0.427734L189.771 0.427734V95.3134L94.8857 95.3134L94.8857 0.427734Z"/>
</mask>
<path d="M94.8857 0.427734V-0.269955L94.1881 -0.269955V0.427734L94.8857 0.427734ZM189.771 0.427734L190.469 0.427734V-0.269955L189.771 -0.269955V0.427734ZM189.771 95.3134V96.0111H190.469V95.3134H189.771ZM94.8857 95.3134H94.1881V96.0111H94.8857V95.3134ZM94.8857 1.12542L189.771 1.12542V-0.269955L94.8857 -0.269955V1.12542ZM189.074 0.427734V95.3134H190.469V0.427734L189.074 0.427734ZM189.771 94.6158L94.8857 94.6158V96.0111L189.771 96.0111V94.6158ZM95.5834 95.3134L95.5834 0.427734L94.1881 0.427734L94.1881 95.3134H95.5834Z" fill="#CCCCCC" mask="url(#path-3-inside-2_590_1274)"/>
<mask id="path-5-inside-3_590_1274" fill="white">
<path d="M189.771 0.427734L284.657 0.427734V95.3134L189.771 95.3134L189.771 0.427734Z"/>
</mask>
<path d="M189.771 0.427734V-0.269955L189.074 -0.269955V0.427734L189.771 0.427734ZM284.657 0.427734L285.355 0.427734V-0.269955L284.657 -0.269955V0.427734ZM284.657 95.3134V96.0111H285.355V95.3134H284.657ZM189.771 95.3134H189.074V96.0111H189.771V95.3134ZM189.771 1.12542L284.657 1.12542V-0.269955L189.771 -0.269955V1.12542ZM283.96 0.427734V95.3134H285.355V0.427734L283.96 0.427734ZM284.657 94.6158L189.771 94.6158V96.0111L284.657 96.0111V94.6158ZM190.469 95.3134L190.469 0.427734L189.074 0.427734L189.074 95.3134H190.469Z" fill="#CCCCCC" mask="url(#path-5-inside-3_590_1274)"/>
<mask id="path-7-inside-4_590_1274" fill="white">
<path d="M284.657 0.427734L379.543 0.427734V95.3134L284.657 95.3134V0.427734Z"/>
</mask>
<path d="M284.657 0.427734V-0.269955L283.96 -0.269955V0.427734L284.657 0.427734ZM379.543 0.427734L380.241 0.427734V-0.269955L379.543 -0.269955V0.427734ZM379.543 95.3134V96.0111H380.241V95.3134H379.543ZM284.657 95.3134H283.96V96.0111H284.657V95.3134ZM284.657 1.12542L379.543 1.12542V-0.269955L284.657 -0.269955V1.12542ZM378.845 0.427734V95.3134H380.241V0.427734L378.845 0.427734ZM379.543 94.6158L284.657 94.6158V96.0111L379.543 96.0111V94.6158ZM285.355 95.3134V0.427734L283.96 0.427734V95.3134H285.355Z" fill="#CCCCCC" mask="url(#path-7-inside-4_590_1274)"/>
<mask id="path-9-inside-5_590_1274" fill="white">
<path d="M379.543 0.427734L474.429 0.427734V95.3134L379.543 95.3134V0.427734Z"/>
</mask>
<path d="M379.543 0.427734V-0.269955L378.845 -0.269955V0.427734L379.543 0.427734ZM474.429 0.427734L475.126 0.427734V-0.269955L474.429 -0.269955V0.427734ZM474.429 95.3134V96.0111H475.126V95.3134H474.429ZM379.543 95.3134H378.845V96.0111H379.543V95.3134ZM379.543 1.12542L474.429 1.12542V-0.269955L379.543 -0.269955V1.12542ZM473.731 0.427734V95.3134H475.126V0.427734L473.731 0.427734ZM474.429 94.6158L379.543 94.6158V96.0111L474.429 96.0111V94.6158ZM380.241 95.3134V0.427734L378.845 0.427734V95.3134H380.241Z" fill="#CCCCCC" mask="url(#path-9-inside-5_590_1274)"/>
<mask id="path-11-inside-6_590_1274" fill="white">
<path d="M474.429 0.427734L569.314 0.427734V95.3134L474.429 95.3134V0.427734Z"/>
</mask>
<path d="M474.429 0.427734V-0.269955L473.731 -0.269955V0.427734L474.429 0.427734ZM569.314 0.427734L570.012 0.427734V-0.269955L569.314 -0.269955V0.427734ZM569.314 95.3134V96.0111H570.012V95.3134H569.314ZM474.429 95.3134H473.731V96.0111H474.429V95.3134ZM474.429 1.12542L569.314 1.12542V-0.269955L474.429 -0.269955V1.12542ZM568.617 0.427734V95.3134H570.012V0.427734L568.617 0.427734ZM569.314 94.6158L474.429 94.6158V96.0111L569.314 96.0111V94.6158ZM475.126 95.3134V0.427734L473.731 0.427734V95.3134H475.126Z" fill="#CCCCCC" mask="url(#path-11-inside-6_590_1274)"/>
<mask id="path-13-inside-7_590_1274" fill="white">
<path d="M569.314 0.427734L664.2 0.427734V95.3134L569.314 95.3134V0.427734Z"/>
</mask>
<path d="M569.314 0.427734V-0.269955L568.617 -0.269955V0.427734L569.314 0.427734ZM664.2 0.427734L664.898 0.427734V-0.269955L664.2 -0.269955V0.427734ZM664.2 95.3134V96.0111H664.898V95.3134H664.2ZM569.314 95.3134H568.617V96.0111H569.314V95.3134ZM569.314 1.12542L664.2 1.12542V-0.269955L569.314 -0.269955V1.12542ZM663.502 0.427734V95.3134H664.898V0.427734L663.502 0.427734ZM664.2 94.6158L569.314 94.6158V96.0111L664.2 96.0111V94.6158ZM570.012 95.3134V0.427734L568.617 0.427734V95.3134H570.012Z" fill="#CCCCCC" mask="url(#path-13-inside-7_590_1274)"/>
<mask id="path-15-inside-8_590_1274" fill="white">
<path d="M664.2 0.427734L759.086 0.427734V95.3134L664.2 95.3134V0.427734Z"/>
</mask>
<path d="M664.2 0.427734V-0.269955L663.503 -0.269955V0.427734L664.2 0.427734ZM759.086 0.427734L759.784 0.427734V-0.269955L759.086 -0.269955V0.427734ZM759.086 95.3134V96.0111H759.784V95.3134H759.086ZM664.2 95.3134H663.503V96.0111H664.2V95.3134ZM664.2 1.12542L759.086 1.12542V-0.269955L664.2 -0.269955V1.12542ZM758.388 0.427734V95.3134H759.784V0.427734L758.388 0.427734ZM759.086 94.6158L664.2 94.6158V96.0111L759.086 96.0111V94.6158ZM664.898 95.3134V0.427734L663.503 0.427734V95.3134H664.898Z" fill="#CCCCCC" mask="url(#path-15-inside-8_590_1274)"/>
<mask id="path-17-inside-9_590_1274" fill="white">
<path d="M759.086 0.427734L853.972 0.427734V95.3134L759.086 95.3134V0.427734Z"/>
</mask>
<path d="M759.086 0.427734V-0.269955L758.388 -0.269955V0.427734L759.086 0.427734ZM853.972 0.427734L854.669 0.427734V-0.269955L853.972 -0.269955V0.427734ZM853.972 95.3134V96.0111H854.669V95.3134H853.972ZM759.086 95.3134H758.388V96.0111H759.086V95.3134ZM759.086 1.12542L853.972 1.12542V-0.269955L759.086 -0.269955V1.12542ZM853.274 0.427734V95.3134H854.669V0.427734L853.274 0.427734ZM853.972 94.6158L759.086 94.6158V96.0111L853.972 96.0111V94.6158ZM759.784 95.3134V0.427734L758.388 0.427734V95.3134H759.784Z" fill="#CCCCCC" mask="url(#path-17-inside-9_590_1274)"/>
<mask id="path-19-inside-10_590_1274" fill="white">
<path d="M853.972 0.427734L948.857 0.427734V95.3134L853.972 95.3134V0.427734Z"/>
</mask>
<path d="M853.972 0.427734V-0.269955L853.274 -0.269955V0.427734L853.972 0.427734ZM948.857 0.427734L949.555 0.427734V-0.269955L948.857 -0.269955V0.427734ZM948.857 95.3134V96.0111H949.555V95.3134H948.857ZM853.972 95.3134H853.274V96.0111H853.972V95.3134ZM853.972 1.12542L948.857 1.12542V-0.269955L853.972 -0.269955V1.12542ZM948.16 0.427734V95.3134H949.555V0.427734L948.16 0.427734ZM948.857 94.6158L853.972 94.6158V96.0111L948.857 96.0111V94.6158ZM854.669 95.3134V0.427734L853.274 0.427734V95.3134H854.669Z" fill="#CCCCCC" mask="url(#path-19-inside-10_590_1274)"/>
<mask id="path-21-inside-11_590_1274" fill="white">
<path d="M948.857 0.427734L1043.74 0.427734V95.3134L948.857 95.3134V0.427734Z"/>
</mask>
<path d="M948.857 0.427734V-0.269955L948.16 -0.269955V0.427734L948.857 0.427734ZM1043.74 0.427734L1044.44 0.427734V-0.269955L1043.74 -0.269955V0.427734ZM1043.74 95.3134V96.0111H1044.44V95.3134H1043.74ZM948.857 95.3134H948.16V96.0111H948.857V95.3134ZM948.857 1.12542L1043.74 1.12542V-0.269955L948.857 -0.269955V1.12542ZM1043.05 0.427734V95.3134H1044.44V0.427734L1043.05 0.427734ZM1043.74 94.6158L948.857 94.6158V96.0111L1043.74 96.0111V94.6158ZM949.555 95.3134V0.427734L948.16 0.427734V95.3134H949.555Z" fill="#CCCCCC" mask="url(#path-21-inside-11_590_1274)"/>
<mask id="path-23-inside-12_590_1274" fill="white">
<path d="M1043.74 0.427734L1138.63 0.427734V95.3134L1043.74 95.3134V0.427734Z"/>
</mask>
<path d="M1043.74 0.427734V-0.269955L1043.05 -0.269955V0.427734L1043.74 0.427734ZM1138.63 0.427734L1139.33 0.427734V-0.269955L1138.63 -0.269955V0.427734ZM1138.63 95.3134V96.0111H1139.33V95.3134H1138.63ZM1043.74 95.3134H1043.05V96.0111H1043.74V95.3134ZM1043.74 1.12542L1138.63 1.12542V-0.269955L1043.74 -0.269955V1.12542ZM1137.93 0.427734V95.3134H1139.33V0.427734L1137.93 0.427734ZM1138.63 94.6158L1043.74 94.6158V96.0111L1138.63 96.0111V94.6158ZM1044.44 95.3134V0.427734L1043.05 0.427734V95.3134H1044.44Z" fill="#CCCCCC" mask="url(#path-23-inside-12_590_1274)"/>
<mask id="path-25-inside-13_590_1274" fill="white">
<path d="M1138.63 0.427734L1233.51 0.427734V95.3134L1138.63 95.3134V0.427734Z"/>
</mask>
<path d="M1138.63 0.427734V-0.269955L1137.93 -0.269955V0.427734L1138.63 0.427734ZM1233.51 0.427734L1234.21 0.427734V-0.269955L1233.51 -0.269955V0.427734ZM1233.51 95.3134V96.0111H1234.21V95.3134H1233.51ZM1138.63 95.3134H1137.93V96.0111H1138.63V95.3134ZM1138.63 1.12542L1233.51 1.12542V-0.269955L1138.63 -0.269955V1.12542ZM1232.82 0.427734V95.3134H1234.21V0.427734L1232.82 0.427734ZM1233.51 94.6158L1138.63 94.6158V96.0111L1233.51 96.0111V94.6158ZM1139.33 95.3134V0.427734L1137.93 0.427734V95.3134H1139.33Z" fill="#CCCCCC" mask="url(#path-25-inside-13_590_1274)"/>
<mask id="path-27-inside-14_590_1274" fill="white">
<path d="M1233.51 0.427734L1328.4 0.427734V95.3134L1233.51 95.3134V0.427734Z"/>
</mask>
<path d="M1233.51 0.427734V-0.269955L1232.82 -0.269955V0.427734L1233.51 0.427734ZM1328.4 0.427734L1329.1 0.427734V-0.269955L1328.4 -0.269955V0.427734ZM1328.4 95.3134V96.0111H1329.1V95.3134H1328.4ZM1233.51 95.3134H1232.82V96.0111H1233.51V95.3134ZM1233.51 1.12542L1328.4 1.12542V-0.269955L1233.51 -0.269955V1.12542ZM1327.7 0.427734V95.3134H1329.1V0.427734L1327.7 0.427734ZM1328.4 94.6158L1233.51 94.6158V96.0111L1328.4 96.0111V94.6158ZM1234.21 95.3134V0.427734L1232.82 0.427734V95.3134H1234.21Z" fill="#CCCCCC" mask="url(#path-27-inside-14_590_1274)"/>
<mask id="path-29-inside-15_590_1274" fill="white">
<path d="M1328.4 0.427734L1423.29 0.427734V95.3134L1328.4 95.3134V0.427734Z"/>
</mask>
<path d="M1423.29 0.427734L1423.98 0.427734V-0.269955L1423.29 -0.269955V0.427734ZM1423.29 95.3134V96.0111H1423.98V95.3134H1423.29ZM1328.4 1.12542L1423.29 1.12542V-0.269955L1328.4 -0.269955V1.12542ZM1422.59 0.427734V95.3134H1423.98V0.427734L1422.59 0.427734ZM1423.29 94.6158L1328.4 94.6158V96.0111L1423.29 96.0111V94.6158Z" fill="url(#paint1_linear_590_1274)" mask="url(#path-29-inside-15_590_1274)"/>
<defs>
<linearGradient id="paint0_linear_590_1274" x1="0" y1="47.8706" x2="94.8857" y2="47.8706" gradientUnits="userSpaceOnUse">
<stop offset="0.0292777" stop-color="white" stop-opacity="0"/>
<stop offset="0.995147" stop-color="#CCCCCC"/>
</linearGradient>
<linearGradient id="paint1_linear_590_1274" x1="1328.4" y1="47.8706" x2="1423.29" y2="47.8706" gradientUnits="userSpaceOnUse">
<stop stop-color="#CCCCCC"/>
<stop offset="1" stop-color="white" stop-opacity="0"/>
</linearGradient>
</defs>
</svg>