<svg width="367" height="1038" viewBox="0 0 367 1038" fill="none" xmlns="http://www.w3.org/2000/svg">
<path d="M346.91 6.6388L346.9 6.64175L346.89 6.64548L315.972 18.0723L315.954 18.0788L315.936 18.0871L304.7 23.2587L304.688 23.2639L304.677 23.2699L294.025 28.8402L294.006 28.8507L280.36 37.5375L280.353 37.5407L280.347 37.5448L269.975 44.5878L260.49 50.9555L260.467 50.9719L260.445 50.9899L245.101 64.0594L245.091 64.0682L245.081 64.0781L231.702 76.777L231.703 76.7768L221.306 86.3655L221.291 86.3782L221.279 86.3925L206.889 101.826L206.876 101.839L206.864 101.855L194.931 116.825L194.922 116.836L194.915 116.847L184.456 131.539L184.447 131.553L170.984 151.9L170.977 151.909L158.584 172.572L158.575 172.586L158.568 172.6L144.041 200.775L135.028 217.739L135.021 217.753L135.014 217.768L124.258 241.675L124.247 241.701L112.637 271.875L112.638 271.875L103.97 293.346L103.961 293.367L103.954 293.39L98.9686 310.092L89.9361 337.744L89.9311 337.76L89.9264 337.777L79.4658 379.433L71.7865 408.865L71.7821 408.884L71.7788 408.904L61.8531 464.2L61.8511 464.211L52.1472 526.08L52.1455 526.092L46.6898 567.317L46.6883 567.325L46.6879 567.334L39.6343 637.862L39.6336 637.869L38.0555 656.484L38.0541 656.492L38.0538 656.501L35.1646 714.025L32.9265 748.028L32.9253 748.064L33.1075 776.014L31.879 834.208L29.0535 859.626L24.4425 878.273L24.4435 878.272L19.5241 898.003L13.1671 915.449L4.5895 937.419L4.57747 937.45L4.56868 937.482L0.561976 954.011L0.548897 954.068L0.548058 954.127L0.500185 967.365L0.500612 967.431L0.516394 967.493L4.18585 981.557L4.1923 981.58L8.38939 993.024L8.40797 993.076L8.43736 993.121L14.221 1002.21L14.2395 1002.24L14.2614 1002.26L22.1031 1011.47L22.1298 1011.5L22.1605 1011.53L32.4589 1020.27L32.4898 1020.3L32.5256 1020.32L42.8521 1026.51L42.8812 1026.53L56.2368 1032.2L56.2894 1032.21L73.7081 1035.54L73.7123 1035.54L80.5629 1036.79L80.6545 1036.81L102.431 1032.7L112.745 1027.69L112.774 1027.67L124.715 1020.84L124.783 1020.8L124.836 1020.75C126.803 1018.59 129.78 1015.36 132.313 1012.66C133.579 1011.31 134.733 1010.09 135.593 1009.21C136.024 1008.77 136.378 1008.41 136.635 1008.17C136.764 1008.04 136.863 1007.95 136.933 1007.9C136.955 1007.88 136.971 1007.86 136.983 1007.86C137.029 1007.84 137.064 1007.82 137.084 1007.8C137.129 1007.78 137.17 1007.74 137.204 1007.71C137.274 1007.66 137.352 1007.58 137.43 1007.5C137.589 1007.34 137.789 1007.11 138.015 1006.84C138.47 1006.3 139.057 1005.56 139.686 1004.75C140.945 1003.14 142.39 1001.21 143.338 999.923L143.36 999.893L143.377 999.861L147.884 991.379L147.9 991.348L147.912 991.315L153.272 976.566L153.294 976.505L154.971 958.318L154.977 958.248L151.531 939.973L151.523 939.946L147.548 926.957L147.532 926.905L147.504 926.856L140.673 914.915L140.664 914.901L127.498 893.527L115.376 856.185L107.441 830.26L102.299 781.437L100.023 747.798L98.8619 693.073L98.4779 647.862L98.2426 598.043L98.2425 598.042L99.3398 560.73L102.969 507.147L107.136 467.183L107.136 467.177L109.807 438.203L114.805 402.676L120.145 371.667L126.87 339.87L126.87 339.869L136.406 301.465L144.577 271.941L144.577 271.94L155.711 239.348L164.097 216.413L174.876 189.97L185.096 168.741L195.967 150.938L195.971 150.932L195.975 150.925L211.259 124.153L232.023 96.8702L247.491 79.2209L258.676 68.474L258.676 68.4729L272.43 55.2123L287.136 44.3133L301.854 33.4041C301.858 33.4014 301.864 33.3984 301.871 33.3939C301.888 33.3824 301.915 33.3649 301.949 33.3423C302.019 33.2971 302.121 33.2301 302.254 33.1438C302.52 32.9711 302.907 32.7204 303.39 32.4088C304.357 31.7855 305.712 30.918 307.259 29.9432C310.357 27.992 314.223 25.6142 317.315 23.8921C320.408 22.1699 324.465 20.1358 327.755 18.5297C329.399 17.7274 330.848 17.032 331.887 16.5382C332.407 16.2912 332.824 16.0946 333.111 15.9596C333.254 15.8923 333.365 15.8404 333.44 15.8052C333.477 15.7878 333.505 15.7743 333.524 15.7654C333.534 15.7609 333.542 15.7575 333.546 15.7553C333.549 15.7542 333.551 15.7538 333.552 15.7532L333.553 15.7521L354.138 6.27758L366.438 1.41727L366.1 0.476196L346.91 6.6388Z" fill="black" stroke="black"/>
</svg>
